<svg xmlns="http://www.w3.org/2000/svg" xmlns:xlink="http://www.w3.org/1999/xlink" version="1.1" x="0px" y="0px" viewBox="-255 347 100 125" style="enable-background:new -255 347 100 100;" xml:space="preserve"><style type="text/css">
	.st0{fill-rule:evenodd;clip-rule:evenodd;}
</style><path class="st0" d="M-175.7,410c-0.2-0.2-0.2-0.4-0.4-0.5l-11.2-11.2c-1.4-1.4-3.8-1.4-5.2,0c-1.4,1.4-1.4,3.7,0,5.1l5,4.9h-24.3  c-2.1,0-3.7,1.6-3.7,3.7s1.7,3.7,3.7,3.7h24.2l-5,4.9c-1.4,1.4-1.4,3.7,0,5.1c1.4,1.4,3.8,1.4,5.2,0l11.3-11.1  c0.2-0.2,0.2-0.4,0.4-0.5c0.2-0.2,0.3-0.4,0.4-0.6c0.2-0.5,0.3-0.9,0.3-1.4c0-0.5-0.1-0.9-0.3-1.4  C-175.4,410.4-175.5,410.2-175.7,410z M-221.1,408.4c-2.2,0-4.1,1.8-4.1,4c0,2.2,1.8,4,4.1,4c2.2,0,4.1-1.8,4.1-4  C-217.1,410.2-218.9,408.4-221.1,408.4z M-230.9,408.4c-2.2,0-4.1,1.8-4.1,4c0,2.2,1.8,4,4.1,4c2.2,0,4.1-1.8,4.1-4  C-226.8,410.2-228.6,408.4-230.9,408.4z M-222.4,384.7h24.3c2.1,0,3.7-1.6,3.7-3.6c0-2-1.7-3.6-3.7-3.6h-24.2l5-4.8  c1.4-1.4,1.4-3.6,0-5c-1.4-1.4-3.8-1.4-5.2,0l-11.3,10.8c-0.2,0.2-0.2,0.4-0.4,0.5c-0.2,0.2-0.3,0.4-0.4,0.6  c-0.2,0.5-0.3,0.9-0.3,1.4c0,0.5,0.1,0.9,0.3,1.4c0.1,0.2,0.2,0.4,0.4,0.6c0.2,0.2,0.2,0.4,0.4,0.5l11.2,10.9c1.4,1.4,3.8,1.4,5.2,0  c1.4-1.4,1.4-3.6,0-5L-222.4,384.7z M-188.7,384.7c2.2,0,4.1-1.8,4.1-3.9c0-2.2-1.8-3.9-4.1-3.9c-2.2,0-4.1,1.8-4.1,3.9  C-192.8,382.9-191,384.7-188.7,384.7z M-179,384.7c2.2,0,4.1-1.8,4.1-3.9c0-2.2-1.8-3.9-4.1-3.9c-2.2,0-4.1,1.8-4.1,3.9  C-183.1,382.9-181.2,384.7-179,384.7z"/><text x="-255" y="462" fill="#000000" font-size="5px" font-weight="bold" font-family="'Helvetica Neue', Helvetica, Arial-Unicode, Arial, Sans-serif">Created by ufuk aydın</text><text x="-255" y="467" fill="#000000" font-size="5px" font-weight="bold" font-family="'Helvetica Neue', Helvetica, Arial-Unicode, Arial, Sans-serif">from the Noun Project</text></svg>